<svg display="none" xmlns="http://www.w3.org/2000/svg">
	<symbol id="profile" viewBox="0 0 20 20">
		<path d="M7.49997 8.76297C5.20245 8.76297 3.33325 6.89392 3.33325 4.59641C3.33325 2.29889 5.20245 0.429688 7.49997 0.429688C9.79749 0.429688 11.6667 2.29889 11.6667 4.59641C11.6667 6.89392 9.79749 8.76297 7.49997 8.76297ZM7.49997 1.67969C5.89169 1.67969 4.58325 2.98798 4.58325 4.59641C4.58325 6.20468 5.89169 7.51297 7.49997 7.51297C9.10825 7.51297 10.4167 6.20468 10.4167 4.59641C10.4167 2.98798 9.10825 1.67969 7.49997 1.67969Z" />
		<path d="M18.5417 19.5964H13.9583C13.1541 19.5964 12.5 18.9422 12.5 18.1379V15.2214C12.5 14.4171 13.1541 13.7629 13.9583 13.7629H18.5417C19.3459 13.7629 20 14.4171 20 15.2214V18.1379C20 18.9422 19.3459 19.5964 18.5417 19.5964ZM13.9583 15.0129C13.8434 15.0129 13.75 15.1063 13.75 15.2214V18.1379C13.75 18.253 13.8434 18.3464 13.9583 18.3464H18.5417C18.6566 18.3464 18.75 18.253 18.75 18.1379V15.2214C18.75 15.1063 18.6566 15.0129 18.5417 15.0129H13.9583Z" />
		<path d="M17.7083 15.013H14.7917C14.4467 15.013 14.1667 14.733 14.1667 14.388V12.513C14.1667 11.3647 15.1017 10.4297 16.25 10.4297C17.3984 10.4297 18.3333 11.3647 18.3333 12.513V14.388C18.3333 14.733 18.0533 15.013 17.7083 15.013ZM15.4167 13.763H17.0833V12.513C17.0833 12.0538 16.7092 11.6797 16.25 11.6797C15.7909 11.6797 15.4167 12.0538 15.4167 12.513V13.763Z" />
		<path d="M10.4167 17.9297H0.625C0.279999 17.9297 0 17.6497 0 17.3047V14.388C0 12.2055 1.77582 10.4297 3.95828 10.4297H11.25C11.9467 10.4297 12.6324 10.6139 13.2326 10.963C13.5309 11.1363 13.6316 11.5189 13.4584 11.8172C13.2851 12.1164 12.9025 12.2163 12.6033 12.043C12.1942 11.8056 11.7258 11.6797 11.25 11.6797H3.95828C2.46506 11.6797 1.25 12.8947 1.25 14.388V16.6797H10.4167C10.7617 16.6797 11.0417 16.9597 11.0417 17.3047C11.0417 17.6497 10.7617 17.9297 10.4167 17.9297Z" />
	</symbol>
	<symbol id="newpost" viewBox="0 0 18 18">
		<path d="M9 0C4.0371 0 0 4.0371 0 9C0 13.9629 4.0371 18 9 18C13.9629 18 18 13.9622 18 9C18 4.0378 13.9629 0 9 0ZM9 16.6057C4.80674 16.6057 1.39426 13.194 1.39426 9C1.39426 4.80604 4.80674 1.39426 9 1.39426C13.1933 1.39426 16.6057 4.80604 16.6057 9C16.6057 13.194 13.194 16.6057 9 16.6057Z" />
		<path d="M12.4857 8.24007H9.69717V5.45154C9.69717 5.06672 9.38554 4.75439 9.00002 4.75439C8.6145 4.75439 8.30287 5.06672 8.30287 5.45154V8.24007H5.51435C5.12882 8.24007 4.8172 8.55239 4.8172 8.93721C4.8172 9.32203 5.12882 9.63436 5.51435 9.63436H8.30287V12.4229C8.30287 12.8077 8.6145 13.12 9.00002 13.12C9.38554 13.12 9.69717 12.8077 9.69717 12.4229V9.63436H12.4857C12.8712 9.63436 13.1828 9.32203 13.1828 8.93721C13.1828 8.55239 12.8712 8.24007 12.4857 8.24007Z" />
	</symbol>
	<symbol id="notification" viewBox="0 0 21 21">
		<path d="M17.8265 13.7367C17.5262 13.7367 17.282 13.4925 17.282 13.1922V9.34577C17.282 6.30896 15.2756 3.73199 12.5189 2.87063C12.6017 2.63984 12.6455 2.39482 12.6455 2.14552C12.6455 0.962497 11.6831 0 10.5 0C9.31685 0 8.3544 0.962497 8.3544 2.14556C8.3544 2.3968 8.39731 2.64144 8.47964 2.87112C5.72363 3.7329 3.71795 6.30949 3.71795 9.34582V13.1923C3.71795 13.4925 3.47368 13.7368 3.17346 13.7368C1.97279 13.7368 0.996033 14.7136 0.996033 15.9142C0.996033 17.1148 1.97279 18.0916 3.17346 18.0916H8.25302C8.20396 18.2809 8.17827 18.4776 8.17827 18.6784C8.17827 19.9586 9.2198 21 10.5 21C11.7801 21 12.8216 19.9586 12.8216 18.6784C12.8216 18.4777 12.796 18.281 12.7469 18.0916H17.8264C19.0271 18.0916 20.0038 17.1148 20.0038 15.9142C20.0039 14.7136 19.0271 13.7367 17.8265 13.7367ZM9.59122 2.14556C9.59122 1.64448 9.99888 1.23682 10.5 1.23682C11.001 1.23682 11.4087 1.64448 11.4087 2.14556C11.4087 2.30985 11.3643 2.46977 11.2816 2.60912C11.025 2.57956 10.7643 2.56381 10.5 2.56381C10.2359 2.56381 9.97546 2.57952 9.71915 2.60904C9.63636 2.4701 9.59122 2.31146 9.59122 2.14556ZM11.5849 18.6783C11.5849 19.2765 11.0982 19.7632 10.5 19.7632C9.90183 19.7632 9.41514 19.2765 9.41514 18.6783C9.41514 18.467 9.47541 18.265 9.58735 18.0916H11.4126C11.5246 18.265 11.5849 18.467 11.5849 18.6783ZM17.8265 16.8548H3.17346C2.65482 16.8548 2.23286 16.4328 2.23286 15.9142C2.23286 15.3955 2.65482 14.9736 3.17346 14.9736C4.15567 14.9736 4.95478 14.1745 4.95478 13.1922V9.34577C4.95478 6.28814 7.44232 3.8006 10.5 3.8006C13.5576 3.8006 16.0451 6.28814 16.0451 9.34577V13.1922C16.0451 14.1745 16.8442 14.9736 17.8265 14.9736C18.3451 14.9736 18.7671 15.3955 18.7671 15.9142C18.7671 16.4328 18.3451 16.8548 17.8265 16.8548Z" />
	</symbol>
	<symbol id="arrow" viewBox="0 0 12 12">
		<path d="M11.9268 5.82325L8.17676 2.07325C8.07909 1.97558 7.92089 1.97558 7.82325 2.07325C7.72559 2.17091 7.72559 2.32912 7.82325 2.42676L11.1465 5.75001H0.250008C0.11182 5.75001 0 5.86183 0 6.00001C0 6.1382 0.11182 6.25002 0.250008 6.25002H11.1465L7.82325 9.57325C7.72559 9.67091 7.72559 9.82911 7.82325 9.92675C7.87207 9.97558 7.93606 10 8.00002 10C8.06398 10 8.12794 9.97558 8.17678 9.92675L11.9268 6.17676C12.0244 6.07911 12.0244 5.92091 11.9268 5.82325Z" />
	</symbol>
	<symbol id="hamburger" viewBox="0 0 21 17">
		<rect width="21" height="3" rx="1.5" />
		<rect y="7" width="21" height="3" rx="1.5" />
		<rect y="14" width="21" height="3" rx="1.5" />
	</symbol>
	<symbol id="cpu" viewBox="0 0 34 34">
		<path d="M19.3906 13.9453H14.6094C14.2426 13.9453 13.9453 14.2427 13.9453 14.6094V19.3906C13.9453 19.7573 14.2426 20.0547 14.6094 20.0547H19.3906C19.7574 20.0547 20.0547 19.7573 20.0547 19.3906V14.6094C20.0547 14.2427 19.7574 13.9453 19.3906 13.9453ZM18.7266 18.7266H15.2734V15.2734H18.7266V18.7266Z" />
		<path d="M31.7422 3.58594C30.4972 3.58594 29.4844 4.59877 29.4844 5.84375C29.4844 7.08873 30.4972 8.10156 31.7422 8.10156C32.9872 8.10156 34 7.08873 34 5.84375C34 4.59877 32.9872 3.58594 31.7422 3.58594ZM31.7422 6.77344C31.2295 6.77344 30.8125 6.35641 30.8125 5.84375C30.8125 5.33109 31.2295 4.91406 31.7422 4.91406C32.2548 4.91406 32.6719 5.33109 32.6719 5.84375C32.6719 6.35641 32.2548 6.77344 31.7422 6.77344Z" />
		<path d="M28.3283 5.3723C28.2047 5.24886 28.0334 5.17773 27.8588 5.17773C27.6835 5.17773 27.5121 5.24879 27.3886 5.3723C27.2651 5.49582 27.1947 5.66715 27.1947 5.8418C27.1947 6.01645 27.2651 6.18777 27.3886 6.31129C27.5128 6.43474 27.6835 6.50586 27.8588 6.50586C28.0334 6.50586 28.2047 6.4348 28.3283 6.31129C28.4518 6.18777 28.5228 6.01645 28.5228 5.8418C28.5228 5.66715 28.4518 5.49582 28.3283 5.3723Z" />
		<path d="M27.594 17.6641C27.8783 18.586 28.7381 19.2578 29.752 19.2578C30.997 19.2578 32.0099 18.245 32.0099 17C32.0099 15.755 30.997 14.7422 29.752 14.7422C28.7381 14.7422 27.8783 15.414 27.594 16.3359H23.5078V11.1562C23.5078 10.7896 23.2105 10.4922 22.8437 10.4922H21.7812V6.50582H25.5014C25.8682 6.50582 26.1655 6.20845 26.1655 5.84176C26.1655 5.47506 25.8682 5.1777 25.5014 5.1777H21.1172C20.7504 5.1777 20.4531 5.47506 20.4531 5.84176V10.4922H17.664V6.40601C18.5859 6.12173 19.2578 5.26196 19.2578 4.24801C19.2578 3.00302 18.245 1.9902 17 1.9902C15.755 1.9902 14.7422 3.00302 14.7422 4.24801C14.7422 5.26196 15.4141 6.12179 16.3359 6.40601V10.4922H11.1562C10.7895 10.4922 10.4922 10.7896 10.4922 11.1562V12.2188H6.50574V4.41641C7.42865 4.13279 8.10154 3.2725 8.10154 2.25781C8.10154 1.01283 7.08872 0 5.84373 0C4.59875 0 3.58592 1.01283 3.58592 2.25781C3.58592 3.27104 4.25682 4.13034 5.17761 4.41522V12.8828C5.17761 13.2495 5.47491 13.5469 5.84167 13.5469H10.4922V16.3359H6.40593C6.12164 15.414 5.26182 14.7422 4.24792 14.7422C3.00294 14.7422 1.99011 15.755 1.99011 17C1.99011 18.245 3.00294 19.2578 4.24792 19.2578C5.26188 19.2578 6.12171 18.586 6.40593 17.6641H10.4922V22.8438C10.4922 23.2104 10.7895 23.5078 11.1562 23.5078H12.2187V27.4942H8.49852C8.13176 27.4942 7.83446 27.7915 7.83446 28.1582C7.83446 28.5249 8.13176 28.8223 8.49852 28.8223H12.8828C13.2496 28.8223 13.5469 28.5249 13.5469 28.1582V23.5078H16.3359V27.594C15.4141 27.8783 14.7422 28.738 14.7422 29.752C14.7422 30.997 15.755 32.0098 17 32.0098C18.245 32.0098 19.2578 30.997 19.2578 29.752C19.2578 28.738 18.5859 27.8782 17.664 27.594V23.5078H22.8437C23.2105 23.5078 23.5078 23.2104 23.5078 22.8438V21.7812H27.4942V29.5836C26.5713 29.8672 25.8984 30.7275 25.8984 31.7422C25.8984 32.9872 26.9112 34 28.1562 34C29.4012 34 30.414 32.9872 30.414 31.7422C30.414 30.729 29.7431 29.8697 28.8224 29.5848V21.1172C28.8224 20.7505 28.5251 20.4531 28.1583 20.4531H23.5078V17.6641H27.594ZM29.752 16.0703C30.2647 16.0703 30.6817 16.4873 30.6817 17C30.6817 17.5127 30.2646 17.9297 29.752 17.9297C29.2394 17.9297 28.8224 17.5127 28.8224 17C28.8224 16.4873 29.2394 16.0703 29.752 16.0703ZM5.84373 3.1875C5.33108 3.1875 4.91405 2.77047 4.91405 2.25781C4.91405 1.74516 5.33108 1.32812 5.84373 1.32812C6.35639 1.32812 6.77342 1.74516 6.77342 2.25781C6.77342 2.77047 6.35639 3.1875 5.84373 3.1875ZM4.24792 17.9297C3.73527 17.9297 3.31824 17.5127 3.31824 17C3.31824 16.4873 3.73527 16.0703 4.24792 16.0703C4.76058 16.0703 5.17761 16.4873 5.17761 17C5.17761 17.5127 4.76058 17.9297 4.24792 17.9297ZM16.0703 4.24801C16.0703 3.73535 16.4873 3.31832 17 3.31832C17.5126 3.31832 17.9297 3.73535 17.9297 4.24801C17.9297 4.76066 17.5126 5.1777 17 5.1777C16.4873 5.1777 16.0703 4.76066 16.0703 4.24801ZM17.9297 29.752C17.9297 30.2646 17.5126 30.6817 17 30.6817C16.4873 30.6817 16.0703 30.2646 16.0703 29.752C16.0703 29.2393 16.4873 28.8223 17 28.8223C17.5126 28.8223 17.9297 29.2393 17.9297 29.752ZM22.1797 22.1797H11.8203V11.8203H22.1797V22.1797ZM28.1562 30.8125C28.6689 30.8125 29.0859 31.2295 29.0859 31.7422C29.0859 32.2548 28.6689 32.6719 28.1562 32.6719C27.6436 32.6719 27.2265 32.2548 27.2265 31.7422C27.2265 31.2295 27.6436 30.8125 28.1562 30.8125Z" />
		<path d="M2.25781 25.8984C1.01283 25.8984 0 26.9113 0 28.1562C0 29.4012 1.01283 30.4141 2.25781 30.4141C3.5028 30.4141 4.51562 29.4012 4.51562 28.1562C4.51562 26.9113 3.5028 25.8984 2.25781 25.8984ZM2.25781 29.0859C1.74516 29.0859 1.32812 28.6689 1.32812 28.1562C1.32812 27.6436 1.74516 27.2266 2.25781 27.2266C2.77047 27.2266 3.1875 27.6436 3.1875 28.1562C3.1875 28.6689 2.77047 29.0859 2.25781 29.0859Z" />
		<path d="M6.61207 27.6887C6.48855 27.5652 6.31723 27.4941 6.14258 27.4941C5.96793 27.4941 5.7966 27.5651 5.67309 27.6887C5.54957 27.8122 5.47852 27.9835 5.47852 28.1582C5.47852 28.3329 5.54957 28.5042 5.67309 28.6276C5.7966 28.7511 5.96793 28.8223 6.14258 28.8223C6.31723 28.8223 6.48855 28.7512 6.61207 28.6276C6.73559 28.5042 6.80664 28.3329 6.80664 28.1582C6.80664 27.9835 6.73559 27.8122 6.61207 27.6887Z" />
	</symbol>
	<symbol id="glass" viewBox="0 0 22 14">
		<path d="M21.5496 5.96287L14.9004 0.148865L12.576 1.85384L13.2911 3.03398L14.8339 1.90229L17.9573 4.63338C17.5992 4.59395 17.2141 4.57135 16.8008 4.57135C13.3508 4.57135 11.8937 6.13099 11.8333 6.19741L11.6445 6.40515V6.69889C11.6445 7.08992 11.3554 7.40805 11 7.40805C10.6446 7.40805 10.3555 7.08992 10.3555 6.69889V6.3983L10.1591 6.18928C10.0971 6.12324 8.60011 4.5714 5.15625 4.5714C4.76102 4.5714 4.39222 4.59206 4.04839 4.62841L7.16611 1.90229L8.70891 3.03398L9.42395 1.85384L7.09955 0.148865L0.499039 5.92027C0.24084 6.12295 0.17209 6.21737 0 6.40515V6.69889C0 8.46773 0.312426 9.99754 0.928598 11.2459C1.48745 12.3781 2.57091 13.0814 3.7562 13.0814H6.59901C7.7843 13.0814 8.8678 12.378 9.42666 11.2458C9.80439 10.4806 10.0674 9.6092 10.2149 8.64242C10.455 8.76029 10.7205 8.82638 11 8.82638C11.2795 8.82638 11.545 8.76029 11.7851 8.64242C11.9326 9.6092 12.1956 10.4806 12.5733 11.2458C13.1323 12.378 14.2158 13.0814 15.401 13.0814H18.2438C19.4291 13.0814 20.5126 12.3781 21.0714 11.2459C21.6876 9.99749 22 8.46764 22 6.69889V6.3983C21.8125 6.20002 21.7627 6.13288 21.5496 5.96287ZM8.29391 10.5688C7.96078 11.2437 7.3113 11.663 6.59901 11.663H3.7562C3.04391 11.663 2.39448 11.2438 2.06138 10.569C1.58731 9.60854 1.32941 8.42225 1.2934 7.03891C1.73688 6.70532 2.94602 5.98972 5.15621 5.98972C7.37077 5.98972 8.60552 6.70825 9.06185 7.04439C9.02533 8.42513 8.76743 9.60953 8.29391 10.5688ZM19.9386 10.569C19.6055 11.2438 18.9561 11.663 18.2438 11.663H15.401C14.6887 11.663 14.0393 11.2438 13.7061 10.5688C13.232 9.60825 12.974 8.42201 12.938 7.03891C13.3814 6.70532 14.5906 5.98972 16.8008 5.98972C19.0153 5.98972 20.2501 6.70825 20.7064 7.04439C20.6699 8.42532 20.412 9.60977 19.9386 10.569Z" />
	</symbol>
	<symbol id="calendar" viewBox="0 0 17 19">
		<path d="M12.8164 8.41791C13.1832 8.41791 13.4805 8.10117 13.4805 7.71045C13.4805 7.31973 13.1832 7.00299 12.8164 7.00299C12.4497 7.00299 12.1523 7.31973 12.1523 7.71045C12.1523 8.10117 12.4497 8.41791 12.8164 8.41791Z" />
		<path d="M14.3438 1.4743H13.4805V0.737152C13.4805 0.330023 13.1832 0 12.8164 0C12.4496 0 12.1523 0.330023 12.1523 0.737152V1.4743H9.13086V0.737152C9.13086 0.330023 8.83356 0 8.4668 0C8.10003 0 7.80273 0.330023 7.80273 0.737152V1.4743H4.81445V0.737152C4.81445 0.330023 4.51715 0 4.15039 0C3.78363 0 3.48633 0.330023 3.48633 0.737152V1.4743H2.65625C1.19159 1.4743 0 2.79705 0 4.42291V15.9225C0 17.5483 1.19159 18.8711 2.65625 18.8711H7.73633C8.10309 18.8711 8.40039 18.5411 8.40039 18.1339C8.40039 17.7268 8.10309 17.3968 7.73633 17.3968H2.65625C1.92392 17.3968 1.32812 16.7354 1.32812 15.9225V4.42291C1.32812 3.60998 1.92392 2.94861 2.65625 2.94861H3.48633V3.68576C3.48633 4.09289 3.78363 4.42291 4.15039 4.42291C4.51715 4.42291 4.81445 4.09289 4.81445 3.68576V2.94861H7.80273V3.68576C7.80273 4.09289 8.10003 4.42291 8.4668 4.42291C8.83356 4.42291 9.13086 4.09289 9.13086 3.68576V2.94861H12.1523V3.68576C12.1523 4.09289 12.4496 4.42291 12.8164 4.42291C13.1832 4.42291 13.4805 4.09289 13.4805 3.68576V2.94861H14.3438C15.0761 2.94861 15.6719 3.60998 15.6719 4.42291V8.62468C15.6719 9.03181 15.9692 9.36183 16.3359 9.36183C16.7027 9.36183 17 9.03181 17 8.62468V4.42291C17 2.79705 15.8084 1.4743 14.3438 1.4743Z" />
		<path d="M12.9824 9.95154C10.7671 9.95154 8.96484 11.9522 8.96484 14.4113C8.96484 16.8705 10.7671 18.8711 12.9824 18.8711C15.1977 18.8711 17 16.8705 17 14.4113C17 11.9522 15.1977 9.95154 12.9824 9.95154ZM12.9824 17.3968C11.4995 17.3968 10.293 16.0575 10.293 14.4113C10.293 12.7651 11.4995 11.4258 12.9824 11.4258C14.4654 11.4258 15.6719 12.7651 15.6719 14.4113C15.6719 16.0575 14.4654 17.3968 12.9824 17.3968Z" />
		<path d="M13.9453 13.6742H13.6465V12.9001C13.6465 12.493 13.3492 12.163 12.9824 12.163C12.6157 12.163 12.3184 12.493 12.3184 12.9001V14.4113C12.3184 14.8185 12.6157 15.1485 12.9824 15.1485H13.9453C14.3121 15.1485 14.6094 14.8185 14.6094 14.4113C14.6094 14.0042 14.3121 13.6742 13.9453 13.6742Z" />
		<path d="M9.92773 8.41791C10.2945 8.41791 10.5918 8.10117 10.5918 7.71045C10.5918 7.31973 10.2945 7.00299 9.92773 7.00299C9.56098 7.00299 9.26367 7.31973 9.26367 7.71045C9.26367 8.10117 9.56098 8.41791 9.92773 8.41791Z" />
		<path d="M7.03906 11.6241C7.40581 11.6241 7.70312 11.3074 7.70312 10.9168C7.70312 10.5262 7.40581 10.2095 7.03906 10.2095C6.67231 10.2095 6.375 10.5262 6.375 10.9168C6.375 11.3074 6.67231 11.6241 7.03906 11.6241Z" />
		<path d="M4.15039 8.41791C4.51714 8.41791 4.81445 8.10117 4.81445 7.71045C4.81445 7.31973 4.51714 7.00299 4.15039 7.00299C3.78364 7.00299 3.48633 7.31973 3.48633 7.71045C3.48633 8.10117 3.78364 8.41791 4.15039 8.41791Z" />
		<path d="M4.15039 11.6241C4.51714 11.6241 4.81445 11.3074 4.81445 10.9168C4.81445 10.5262 4.51714 10.2095 4.15039 10.2095C3.78364 10.2095 3.48633 10.5262 3.48633 10.9168C3.48633 11.3074 3.78364 11.6241 4.15039 11.6241Z" />
		<path d="M4.15039 14.8313C4.51714 14.8313 4.81445 14.5145 4.81445 14.1237C4.81445 13.7329 4.51714 13.4161 4.15039 13.4161C3.78364 13.4161 3.48633 13.7329 3.48633 14.1237C3.48633 14.5145 3.78364 14.8313 4.15039 14.8313Z" />
		<path d="M7.03906 14.8313C7.40581 14.8313 7.70312 14.5145 7.70312 14.1237C7.70312 13.7329 7.40581 13.4161 7.03906 13.4161C6.67231 13.4161 6.375 13.7329 6.375 14.1237C6.375 14.5145 6.67231 14.8313 7.03906 14.8313Z" />
		<path d="M7.03906 8.41791C7.40581 8.41791 7.70312 8.10117 7.70312 7.71045C7.70312 7.31973 7.40581 7.00299 7.03906 7.00299C6.67231 7.00299 6.375 7.31973 6.375 7.71045C6.375 8.10117 6.67231 8.41791 7.03906 8.41791Z" />
	</symbol>
	<symbol id="comment" viewBox="0 0 16 17">
		<path d="M11.125 7.75708C11.5565 7.75708 11.9062 7.4073 11.9062 6.97583C11.9062 6.54436 11.5565 6.19458 11.125 6.19458C10.6935 6.19458 10.3438 6.54436 10.3438 6.97583C10.3438 7.4073 10.6935 7.75708 11.125 7.75708Z" />
		<path d="M8 7.75708C8.43147 7.75708 8.78125 7.4073 8.78125 6.97583C8.78125 6.54436 8.43147 6.19458 8 6.19458C7.56853 6.19458 7.21875 6.54436 7.21875 6.97583C7.21875 7.4073 7.56853 7.75708 8 7.75708Z" />
		<path d="M4.875 7.75708C5.30647 7.75708 5.65625 7.4073 5.65625 6.97583C5.65625 6.54436 5.30647 6.19458 4.875 6.19458C4.44353 6.19458 4.09375 6.54436 4.09375 6.97583C4.09375 7.4073 4.44353 7.75708 4.875 7.75708Z" />
		<path d="M15.375 0.16333H0.625C0.279813 0.16333 0 0.443143 0 0.78833V13.1633C0 13.5085 0.279813 13.7883 0.625 13.7883H6.15553L7.47156 15.8721C7.58609 16.0534 7.78556 16.1633 8 16.1633C8.21444 16.1633 8.41391 16.0534 8.52844 15.8721L9.84447 13.7883H15.375C15.7202 13.7883 16 13.5085 16 13.1633V0.78833C16 0.443143 15.7202 0.16333 15.375 0.16333ZM14.75 12.5383H9.5C9.28556 12.5383 9.08609 12.6483 8.97156 12.8296L8 14.3679L7.02844 12.8296C6.91391 12.6483 6.71444 12.5383 6.5 12.5383H1.25V1.41333H14.75V12.5383Z" />
	</symbol>
	<symbol id="star" viewBox="0 -10 511.98685 511">
		<path d="m114.59375 491.140625c-5.609375 0-11.179688-1.75-15.933594-5.1875-8.855468-6.417969-12.992187-17.449219-10.582031-28.09375l32.9375-145.089844-111.703125-97.960937c-8.210938-7.167969-11.347656-18.519532-7.976562-28.90625 3.371093-10.367188 12.542968-17.707032 23.402343-18.710938l147.796875-13.417968 58.433594-136.746094c4.308594-10.046875 14.121094-16.535156 25.023438-16.535156 10.902343 0 20.714843 6.488281 25.023437 16.511718l58.433594 136.769532 147.773437 13.417968c10.882813.980469 20.054688 8.34375 23.425782 18.710938 3.371093 10.367187.253906 21.738281-7.957032 28.90625l-111.703125 97.941406 32.9375 145.085938c2.414063 10.667968-1.726562 21.699218-10.578125 28.097656-8.832031 6.398437-20.609375 6.890625-29.910156 1.300781l-127.445312-76.160156-127.445313 76.203125c-4.308594 2.558594-9.109375 3.863281-13.953125 3.863281zm141.398438-112.875c4.84375 0 9.640624 1.300781 13.953124 3.859375l120.277344 71.9375-31.085937-136.941406c-2.21875-9.746094 1.089843-19.921875 8.621093-26.515625l105.472657-92.5-139.542969-12.671875c-10.046875-.917969-18.6875-7.234375-22.613281-16.492188l-55.082031-129.046875-55.148438 129.066407c-3.882812 9.195312-12.523438 15.511718-22.546875 16.429687l-139.5625 12.671875 105.46875 92.5c7.554687 6.613281 10.859375 16.769531 8.621094 26.539062l-31.0625 136.9375 120.277343-71.914062c4.308594-2.558594 9.109376-3.859375 13.953126-3.859375zm-84.585938-221.847656s0 .023437-.023438.042969zm169.128906-.0625.023438.042969c0-.023438 0-.023438-.023438-.042969zm0 0" />
	</symbol>
</svg>
